<svg id="Grupo_2" data-name="Grupo 2" xmlns="http://www.w3.org/2000/svg" width="165" height="59.496" viewBox="0 0 165 59.496">
  <path id="Trazado_3" data-name="Trazado 3" d="M165,0H0V59.5H165Z" fill="#344955"/>
  <path id="Trazado_4" data-name="Trazado 4" d="M11.953,22.645V21.637q.609.012.738.024a34.914,34.914,0,0,0,3.785.164q.351,0,1.43-.07.774-.059,1.16-.117h.855q.023.855.023.961-1.172.152-1.371.2a1.775,1.775,0,0,0-.762.375.417.417,0,0,0-.129.3,1.441,1.441,0,0,0,.023.258l.387,1.02q.41,1.2,1.359,3.246l1.336,3.023q.387.879.7,1.664l.68-1.664,1.395-3.867.328-.82q.059-.176.152-.492.3-1.043.5-1.582a2.55,2.55,0,0,0,.211-.879A.474.474,0,0,0,24.539,23a2.212,2.212,0,0,0-1.113-.328,2.378,2.378,0,0,0-.434-.07q-.27-.035-.481-.082a1.358,1.358,0,0,1-.07-.351,5.269,5.269,0,0,1,.047-.539q.211,0,1.207.094t1.945.094A14.4,14.4,0,0,0,27.3,21.73a10.933,10.933,0,0,1,1.125-.105V22q0,.141-.012.422a9.923,9.923,0,0,0-1.77.75,1.183,1.183,0,0,0-.316.387,28.019,28.019,0,0,0-1.359,3.176l-1.5,3.879q-.211.563-.469,1.2t-.527,1.371q-.059.176-.551,1.406l-.117.211q-.516,1.652-.773,2.285-.469.024-.586.023-.223,0-.621-.023-.129-.351-.258-.715t-1-2.543l-2.215-4.969-1.324-3.2q-1.02-2.18-1.113-2.332a1.258,1.258,0,0,0-.445-.422,3.224,3.224,0,0,0-1.02-.2ZM36.867,34.727l.27.176a.331.331,0,0,1,.129.2l.012.059a2.9,2.9,0,0,1-.738,1.441,1.7,1.7,0,0,1-1.137.387,1.946,1.946,0,0,1-1.2-.375,3.383,3.383,0,0,1-.9-1.348,3.28,3.28,0,0,1-1.418,1.348,5.08,5.08,0,0,1-2.238.445,2.671,2.671,0,0,1-1.793-.5,1.726,1.726,0,0,1-.574-1.348,2.051,2.051,0,0,1,.164-.785A2.721,2.721,0,0,1,28,33.637a5.429,5.429,0,0,1,1.231-.867q.129-.07.891-.4L33.035,31.2q.035-.445.035-.9a4.181,4.181,0,0,0-.387-2.156.912.912,0,0,0-.82-.351,2.586,2.586,0,0,0-1.078.223,1.588,1.588,0,0,0-.715.574,2.871,2.871,0,0,0-.281.973,1.766,1.766,0,0,1-.152.6,1.55,1.55,0,0,1-.644.41q-.457.176-.621.258a2.518,2.518,0,0,1-1.008.3.5.5,0,0,1-.164-.4,2.235,2.235,0,0,1,.281-1.148,4.961,4.961,0,0,1,1.266-1.312,6.014,6.014,0,0,1,1.594-.9,8.02,8.02,0,0,1,2.461-.328,3.406,3.406,0,0,1,1.605.351,1.842,1.842,0,0,1,.938,1.02,7.538,7.538,0,0,1,.27,2.449l-.035,1.934.024,1.418v.363a1.277,1.277,0,0,0,.129.68.433.433,0,0,0,.352.176.361.361,0,0,0,.223-.07l.352-.551Zm-3.844-2.719a7.275,7.275,0,0,0-1.512.75,3.516,3.516,0,0,0-1.16,1.043,1.8,1.8,0,0,0-.234.949,1.175,1.175,0,0,0,.3.832.934.934,0,0,0,.7.328,1.7,1.7,0,0,0,1.113-.375,2.335,2.335,0,0,0,.727-.8,7.562,7.562,0,0,0,.105-1.7Q33.07,32.523,33.023,32.008Zm4.594,4.406a1.486,1.486,0,0,1,.68-.223q.808-.094.926-.246a2.227,2.227,0,0,0,.234-1.242V31.4l-.012-.785V28.246l-.035-2.707V25.07a4.836,4.836,0,0,0-.152-1.418,1.68,1.68,0,0,0-.879-.246,2.275,2.275,0,0,1-.527-.059,4.023,4.023,0,0,1-.035-.434,1.088,1.088,0,0,1,.023-.211,8.387,8.387,0,0,0,1.922-.469,6.522,6.522,0,0,0,1.523-.762l.328-.012q.105,0,.3.012.059,4.055.059,5.555,0,.445-.012.715v.07l.012.223v5.191l.012,1.711v.281a1.189,1.189,0,0,0,.164.715.935.935,0,0,0,.6.188q.246.023.973.117a1.808,1.808,0,0,1,.059.4,3.18,3.18,0,0,1-.023.328l-.926-.047q-.773-.059-1.945-.059l-.434-.012q-.668,0-1.934.105h-.855Zm6.727-8.977q.129-.047.211-.07h3.492l.258.023.012.785-.023,1.148.012.6-.012,1.77V32.9a10.5,10.5,0,0,0,.129,1.863,1.519,1.519,0,0,0,.563.785,1.73,1.73,0,0,0,.961.258A2.862,2.862,0,0,0,50.8,35.7a2.953,2.953,0,0,0,.75-.4,3.642,3.642,0,0,0,.551-.422,2.456,2.456,0,0,0,.469-.691l.082-2.918q.024-.457.023-.75t-.023-.762q-.012-.469-.012-.527l.012-.434-.023-.258a1.8,1.8,0,0,0-.785-.223l-.785-.059a.724.724,0,0,1-.129-.082,1.971,1.971,0,0,1-.047-.352,3.157,3.157,0,0,1,.035-.4,4.543,4.543,0,0,1,.668-.059l1.8.023q.727,0,1.781-.023l.023.879-.035,1.125.023,1.406-.012,2.016-.024.9.012.609q-.047.609-.047.691a.723.723,0,0,0,.105.434q.105.141.2.141l1.078-.035.141.023q.035.41.035.469a1.472,1.472,0,0,1-.035.258,5.727,5.727,0,0,0-.891.082A21.589,21.589,0,0,0,53,37.2l-.469-.023-.012-1.91q-.141.117-.41.363a7.418,7.418,0,0,1-1.77,1.242,3.888,3.888,0,0,1-1.547.316,3.321,3.321,0,0,1-1.664-.4A2.619,2.619,0,0,1,46.1,35.8a3.551,3.551,0,0,1-.328-1.312q-.023-.223-.023-2.3l.012-.375q.059-1.148.059-1.7,0-.937-.035-1.254a.928.928,0,0,0-.117-.352,1.631,1.631,0,0,0-.387-.105,3.309,3.309,0,0,1-.937-.246q-.059-.035-.059-.152,0-.07.012-.187T44.344,27.438ZM67.9,34.727l.27.176a.331.331,0,0,1,.129.2l.012.059A2.9,2.9,0,0,1,67.57,36.6a1.7,1.7,0,0,1-1.137.387,1.946,1.946,0,0,1-1.2-.375,3.384,3.384,0,0,1-.9-1.348,3.28,3.28,0,0,1-1.418,1.348,5.08,5.08,0,0,1-2.238.445,2.671,2.671,0,0,1-1.793-.5,1.726,1.726,0,0,1-.574-1.348,2.051,2.051,0,0,1,.164-.785,2.72,2.72,0,0,1,.551-.785,5.431,5.431,0,0,1,1.23-.867q.129-.07.891-.4L64.066,31.2q.035-.445.035-.9a4.18,4.18,0,0,0-.387-2.156.912.912,0,0,0-.82-.351,2.586,2.586,0,0,0-1.078.223,1.588,1.588,0,0,0-.715.574,2.871,2.871,0,0,0-.281.973,1.77,1.77,0,0,1-.152.6,1.55,1.55,0,0,1-.645.41q-.457.176-.621.258a2.518,2.518,0,0,1-1.008.3.5.5,0,0,1-.164-.4,2.235,2.235,0,0,1,.281-1.148,4.963,4.963,0,0,1,1.266-1.312,6.014,6.014,0,0,1,1.594-.9,8.019,8.019,0,0,1,2.461-.328,3.407,3.407,0,0,1,1.605.351,1.842,1.842,0,0,1,.938,1.02,7.535,7.535,0,0,1,.27,2.449l-.035,1.934.023,1.418v.363a1.278,1.278,0,0,0,.129.68.433.433,0,0,0,.352.176.361.361,0,0,0,.223-.07l.352-.551Zm-3.844-2.719a7.275,7.275,0,0,0-1.512.75,3.517,3.517,0,0,0-1.16,1.043,1.8,1.8,0,0,0-.234.949,1.175,1.175,0,0,0,.3.832.934.934,0,0,0,.7.328,1.7,1.7,0,0,0,1.113-.375,2.335,2.335,0,0,0,.727-.8,7.568,7.568,0,0,0,.105-1.7Q64.1,32.523,64.055,32.008Zm5.2-3.961A7.114,7.114,0,0,0,71.25,26.9a7.267,7.267,0,0,0,1.324-1.828h.656a1.957,1.957,0,0,1,.105.645q0,.609-.012.949l-.035.691q0,.059.012.27l.27.012q.059,0,1.1-.047.082,0,.879-.023a2.624,2.624,0,0,1,.07.563,2.926,2.926,0,0,1-.082.633,5.29,5.29,0,0,1-.586.047q-.094,0-.375-.023h-.609l-.211-.012L73.2,28.8l-.023,4.476a12.323,12.323,0,0,0,.047,1.629,1.652,1.652,0,0,0,.281.609,1.367,1.367,0,0,0,.6.129,1.392,1.392,0,0,0,.469-.059,2.577,2.577,0,0,0,.516-.34q.07-.059.223-.164a2.77,2.77,0,0,1,.457.445l.047.141a2.846,2.846,0,0,1-1.16,1.02,3.535,3.535,0,0,1-1.582.363,2.372,2.372,0,0,1-1.77-.691,2.956,2.956,0,0,1-.68-2.145l.047-2.062v-3.34L70.3,28.8l-.844.012-.152-.035a.363.363,0,0,1-.07-.2Q69.234,28.5,69.258,28.047Zm8.824-5.1a1.374,1.374,0,0,1,.41-1.031,1.427,1.427,0,0,1,1.055-.41,1.6,1.6,0,0,1,1.148.434,1.279,1.279,0,0,1,.457.961,1.857,1.857,0,0,1-.187.8,1.425,1.425,0,0,1-.574.645,1.519,1.519,0,0,1-.8.234,1.456,1.456,0,0,1-1.043-.48A1.587,1.587,0,0,1,78.082,22.949ZM76.441,36.93l-.023-.762,1.324-.176a.694.694,0,0,0,.4-.234,1.4,1.4,0,0,0,.117-.715v-.129q0-.141.012-.5t.023-.656q0-.223-.035-.855l.012-.586-.012-.551.023-1.91a4.188,4.188,0,0,0-.07-.75,1.014,1.014,0,0,0-.469-.3,4.657,4.657,0,0,0-1.184-.187v-.656a5.683,5.683,0,0,0,2.121-.5,4.892,4.892,0,0,0,1.348-1h.785q.047,1.453.047,3.774l-.082,4.781a7.683,7.683,0,0,0,.047.891,7.288,7.288,0,0,0,1.184.258,2.552,2.552,0,0,1,.5.117l-.012.645q-.316.012-.469.012-.176,0-.539-.023-1.2-.059-3.2-.059-.574,0-1.113.047T76.441,36.93Zm16.523-8.543a4.6,4.6,0,0,1,1.113,1.676,4.773,4.773,0,0,1,.375,1.77,5.687,5.687,0,0,1-.48,2.531,4.863,4.863,0,0,1-1.957,2.145,5.738,5.738,0,0,1-2.859.691,5.627,5.627,0,0,1-3.105-.82,5.136,5.136,0,0,1-1.816-1.863,5.6,5.6,0,0,1-.539-2.59,5.007,5.007,0,0,1,.258-1.57,4.609,4.609,0,0,1,.7-1.383,5.154,5.154,0,0,1,1-.984,5.328,5.328,0,0,1,1.57-.8,6.565,6.565,0,0,1,1.922-.246A5.021,5.021,0,0,1,92.965,28.387Zm-6.41,4.055q.105,1.453.152,1.676a4.279,4.279,0,0,0,.48,1.348,1.905,1.905,0,0,0,.738.645,2.534,2.534,0,0,0,1.23.281,2.05,2.05,0,0,0,1.442-.539,3.264,3.264,0,0,0,.844-1.711,13.274,13.274,0,0,0,.164-2.5,4.914,4.914,0,0,0-.7-3.012,2.417,2.417,0,0,0-3.352-.387,2.728,2.728,0,0,0-.82,1.488A15.443,15.443,0,0,0,86.555,32.441Zm9.258,3.891a2.376,2.376,0,0,1,.563-.187,2.961,2.961,0,0,0,.75-.176.527.527,0,0,0,.234-.258,4.591,4.591,0,0,0,.07-1.031V33.66l.012-.832-.035-1.23v-.738a5.116,5.116,0,0,0-.117-1.207A.691.691,0,0,0,97,29.3a3.832,3.832,0,0,0-1.113-.457l-.012-.563a1.413,1.413,0,0,1,.27-.059q.129-.024.949-.234.645-.234.832-.328.059-.035.188-.105a3.694,3.694,0,0,1,.316-.234,4.573,4.573,0,0,0,.844-.855l.621-.047-.023,1.324q-.012.2-.012.316,0,.094.012.539a6.733,6.733,0,0,1,1.77-1.172,5.159,5.159,0,0,1,1.98-.434,3.422,3.422,0,0,1,1.934.551,2.575,2.575,0,0,1,1.09,1.254,10.287,10.287,0,0,1,.257,2.883l-.046,3.82a.947.947,0,0,0,.093.445,1.728,1.728,0,0,0,.645.176l.574.105a.645.645,0,0,1,.106.375q0,.141-.012.387l-2.3-.164-.68.023h-.539l-1.547.117h-.4q-.012-.152-.012-.234,0-.211.024-.457.164-.035.82-.117a2.891,2.891,0,0,0,.387-.082c.156-.062.246-.125.269-.187a2.039,2.039,0,0,0,.094-.762q0-.984-.024-1.512l.012-1.359a8.659,8.659,0,0,0-.305-3.082,1.426,1.426,0,0,0-1.335-.879,3.119,3.119,0,0,0-1.36.34,5.965,5.965,0,0,0-1.453,1.008l-.023.2.023.738-.012.785.047,1.875-.023.293a7.469,7.469,0,0,0,.152,2.156,2.374,2.374,0,0,0,1.16.539,1.812,1.812,0,0,1,.035.293,1.788,1.788,0,0,1-.082.434q-.363.012-.609.012a6.536,6.536,0,0,1-.773-.07l-1.254-.023q-.937,0-2.707.082a.655.655,0,0,1-.047-.246Q95.8,36.613,95.813,36.332Z" fill="#f9aa33"/>
  <path id="Trazado_5" data-name="Trazado 5" d="M108.633,22.609l-.059-.727a.489.489,0,0,1,.223-.082q.972.07,1.945.105.4.012.516.012.421,0,.984-.035l1.524-.07a.216.216,0,0,1,.105.129l-.094.539c-.148.094-.293.176-.433.246q-.47.258-.469.422a.919.919,0,0,0,.117.387,4.371,4.371,0,0,1,.188.48q.2.574,1.125,2.789l3.035,7.078q.6-1.113,1.863-3.75l-1.723-4.125q-.48-1.16-.832-1.91-.117-.246-.2-.469c-.047-.078-.109-.191-.187-.34a.884.884,0,0,0-.364-.375,5.007,5.007,0,0,0-1.171-.375l.046-.7q.375,0,1.032.035.95.07,1.218.07l1.641-.023,2.027-.117a.887.887,0,0,0,.164.012l.012.4v.141a.525.525,0,0,1-.047.188,3.957,3.957,0,0,1-.632.105.791.791,0,0,0-.434.129.322.322,0,0,0-.117.246,2.034,2.034,0,0,0,.246.855q.1.223.281.68.586,1.5.9,2.191l.821-1.7a15.228,15.228,0,0,0,.738-1.723.729.729,0,0,0,.035-.2v-.07a.96.96,0,0,0-.258-.211,6.909,6.909,0,0,0-1-.3c-.015-.149-.023-.262-.023-.34a3.223,3.223,0,0,1,.035-.387q.387,0,2.191.059,1.066.035,1.36.035h.433q.188-.012.4-.012l.023.094-.035.527-.023.059a7.8,7.8,0,0,0-1.512.527,1.644,1.644,0,0,0-.469.539q-.585,1.031-2.168,4.313l.047.105.75,1.734,1.277,3.012q.2.445.282.656l1.476-3.867,2.063-5.262.328-.984a.8.8,0,0,0,.023-.187l-.035-.2c-.266-.086-.484-.148-.656-.187a1.688,1.688,0,0,1-.434-.187c-.023-.258-.035-.418-.035-.48a.557.557,0,0,1,.082-.246l.188-.024,1.757.07,1.161-.07.246.035a2.356,2.356,0,0,1,.035.375.622.622,0,0,1-.082.34.462.462,0,0,1-.235.141,2.033,2.033,0,0,0-.656.445,2.966,2.966,0,0,0-.363.785q-1.02,2.742-2.109,5.285t-3.223,8.1l-1.184.012a4.336,4.336,0,0,0-.258-.715q-.339-.762-.4-.961l-1.3-3q-.316-.75-.515-1.113c-.024-.039-.055-.094-.094-.164q-.024.059-1.242,2.355t-1.77,3.574l-1.195.012a41.621,41.621,0,0,0-1.652-3.961l-3.786-8.859a7.056,7.056,0,0,0-.855-1.605,1.135,1.135,0,0,0-.352-.2Zm21.129,8.109a5.228,5.228,0,0,1,.539-1.324,6.053,6.053,0,0,1,1.394-1.5,4.657,4.657,0,0,1,1.348-.715,4.772,4.772,0,0,1,1.254-.223,7.336,7.336,0,0,1,1.781.176,3.376,3.376,0,0,1,1.137.481,5.534,5.534,0,0,1,1.055.926,3.836,3.836,0,0,1,.644,1.1,4.36,4.36,0,0,1,.281,1.535l-1.3-.024q-.54,0-2.368-.105Q134.848,31,134.59,31l-1.266.012h-1.008a2.127,2.127,0,0,0-.023.281,6.141,6.141,0,0,0,.152,1.313,4.278,4.278,0,0,0,.457,1.207,3.441,3.441,0,0,0,.75.891,3.035,3.035,0,0,0,.938.539l.68.223a7.86,7.86,0,0,0,1.207-.059,5.459,5.459,0,0,0,.984-.293,6,6,0,0,0,1.043-.621q.422.3.7.551a6.792,6.792,0,0,1-2.145,1.652,5.874,5.874,0,0,1-2.472.5,5.757,5.757,0,0,1-1.512-.164,4.6,4.6,0,0,1-1.418-.645,4.331,4.331,0,0,1-1.09-1.078,4.963,4.963,0,0,1-.679-1.324,4.833,4.833,0,0,1-.293-1.43A9.37,9.37,0,0,1,129.762,30.719Zm6.808-.5a3.41,3.41,0,0,0-.258-1.254,1.938,1.938,0,0,0-.761-.926,1.788,1.788,0,0,0-2.461.351,2.994,2.994,0,0,0-.715,1.875l2.672.012q.258,0,.726-.035c.227-.024.387-.035.481-.035C136.324,30.2,136.43,30.207,136.57,30.215ZM140,22.82l1-.375q.375-.141,1.957-.973h.516a2.334,2.334,0,0,1,.351.023q.012.34.012.469l-.012.48.059,4.406-.012,1.688a3.918,3.918,0,0,1,1.547-1.113,4.1,4.1,0,0,1,.844-.328,4.519,4.519,0,0,1,1-.129,5.119,5.119,0,0,1,1.887.293,4.167,4.167,0,0,1,1.382.926,4.784,4.784,0,0,1,1.383,3.492,6.123,6.123,0,0,1-.972,3.141,4.9,4.9,0,0,1-1.067,1.125,5.472,5.472,0,0,1-1.57.879,6.277,6.277,0,0,1-2,.223,5.847,5.847,0,0,1-2.918-.961q-.421-.258-.609-.351c-.157.226-.332.5-.528.82s-.316.531-.387.633l-.585.012c0-.187.007-.379.023-.574a4.729,4.729,0,0,0,.035-.551l-.012-.867.036-.3a6.367,6.367,0,0,0,.023-.656V25.68A10.348,10.348,0,0,0,141.293,24a.245.245,0,0,0-.094-.164,10.26,10.26,0,0,0-1.2-.48Zm3.9,6.41-.011,1.828a25.04,25.04,0,0,0,.14,3.633,1.846,1.846,0,0,0,.785,1.043,2.328,2.328,0,0,0,1.336.434,2.708,2.708,0,0,0,1.032-.211,2.518,2.518,0,0,0,.785-.469,2.676,2.676,0,0,0,.609-.82,4.515,4.515,0,0,0,.4-1.242,9.5,9.5,0,0,0,.106-1.23,4.825,4.825,0,0,0-.4-1.9,2.908,2.908,0,0,0-1.1-1.406,2.713,2.713,0,0,0-1.535-.469,3.259,3.259,0,0,0-1.219.293A3.138,3.138,0,0,0,143.906,29.23Z" fill="#f2f2f2"/>
  <path id="Trazado_6" data-name="Trazado 6" d="M88,20.823a1.983,1.983,0,1,0-2-1.983A1.992,1.992,0,0,0,88,20.823Z" fill="#f9aa33"/>
  <path id="Trazado_7" data-name="Trazado 7" d="M80,24.79a1.983,1.983,0,1,0-2-1.983A1.992,1.992,0,0,0,80,24.79Z" fill="#f9aa33"/>
  <path id="Trazado_8" data-name="Trazado 8" d="M80.775,22.36l6-2.975" fill="none" stroke="#f9aa33" stroke-width="1"/>
  <path id="Trazado_9" data-name="Trazado 9" d="M80.775,22.36l6-2.975" fill="none" stroke="#f9aa33" stroke-width="1"/>
  <path id="Trazado_10" data-name="Trazado 10" d="M80.775,22.36l6-2.975" fill="none" stroke="#f9aa33" stroke-width="1"/>
  <path id="Trazado_11" data-name="Trazado 11" d="M80.775,22.36l6-2.975" fill="none" stroke="#f9aa33" stroke-width="1"/>
  <path id="Trazado_12" data-name="Trazado 12" d="M89.254,19.4l5.463,3.16" fill="none" stroke="#f9aa33" stroke-width="1"/>
  <path id="Trazado_13" data-name="Trazado 13" d="M104,20.823a1.983,1.983,0,1,0-2-1.983A1.991,1.991,0,0,0,104,20.823Z" fill="#f9aa33"/>
  <path id="Trazado_14" data-name="Trazado 14" d="M96,24.79a1.983,1.983,0,1,0-2-1.983A1.992,1.992,0,0,0,96,24.79Z" fill="#f9aa33"/>
  <path id="Trazado_15" data-name="Trazado 15" d="M96.775,22.36l6-2.975" fill="none" stroke="#f9aa33" stroke-width="1"/>
</svg>
